<?xml version="1.0" encoding="UTF-8" standalone="no"?>
<!-- Created with Inkscape (http://www.inkscape.org/) -->

<svg
   xmlns:dc="http://purl.org/dc/elements/1.1/"
   xmlns:cc="http://creativecommons.org/ns#"
   xmlns:rdf="http://www.w3.org/1999/02/22-rdf-syntax-ns#"
   xmlns:svg="http://www.w3.org/2000/svg"
   xmlns="http://www.w3.org/2000/svg"
   xmlns:sodipodi="http://sodipodi.sourceforge.net/DTD/sodipodi-0.dtd"
   xmlns:inkscape="http://www.inkscape.org/namespaces/inkscape"
   version="1.1"
   id="svg9085"
   width="128"
   height="128"
   viewBox="0 0 128 128"
   sodipodi:docname="stealth_2.svg"
   inkscape:version="0.92.2 (5c3e80d, 2017-08-06)">
  <metadata
     id="metadata9091">
    <rdf:RDF>
      <cc:Work
         rdf:about="">
        <dc:format>image/svg+xml</dc:format>
        <dc:type
           rdf:resource="http://purl.org/dc/dcmitype/StillImage" />
        <dc:title></dc:title>
      </cc:Work>
    </rdf:RDF>
  </metadata>
  <defs
     id="defs9089" />
  <sodipodi:namedview
     pagecolor="#ffffff"
     bordercolor="#666666"
     borderopacity="1"
     objecttolerance="10"
     gridtolerance="10"
     guidetolerance="10"
     inkscape:pageopacity="0"
     inkscape:pageshadow="2"
     inkscape:window-width="731"
     inkscape:window-height="538"
     id="namedview9087"
     showgrid="false"
     inkscape:zoom="1.84375"
     inkscape:cx="64"
     inkscape:cy="64"
     inkscape:window-x="1819"
     inkscape:window-y="103"
     inkscape:window-maximized="0"
     inkscape:current-layer="svg9085"
     inkscape:pagecheckerboard="true"
     showborder="false" />
  <g
     id="g13057"
     transform="translate(1.2e-6,1.0847457)">
    <path
       style="fill:#d2d2d2"
       d="M 31.993526,114.12508 C 22.286548,110.94222 18.516807,105.8132 18.506743,95.775291 18.495336,84.399316 20.065745,83.5 39.942163,83.5 c 15.447845,0 15.969574,0.06845 18.477273,2.424314 C 59.838746,87.257687 61,88.945187 61,89.674314 61,90.480632 62.17532,91 64,91 c 1.82468,0 3,-0.519368 3,-1.325686 0,-4.412895 4.720257,-6.161827 17.619266,-6.528224 C 105.69662,82.547387 109,84.221806 109,95.504205 c 0,7.441185 -1.44352,11.008315 -6.00955,14.850375 C 91.801958,119.76908 67,113.50718 67,101.26787 67,99.414682 66.451447,99 64,99 c -2.451447,0 -3,0.414682 -3,2.26787 0,3.48088 -4.447643,9.24209 -8.688935,11.25514 -4.182722,1.98524 -16.247616,2.93658 -20.317539,1.60207 z m 17.702213,-9.08112 c 3.297363,-2.01053 4.845219,-6.183135 4.140978,-11.162968 C 53.50102,91.50721 53.459117,91.5 40,91.5 c -14.595262,0 -15.666267,0.724927 -13.546841,9.16939 1.503213,5.98928 16.091331,8.73496 23.24258,4.37457 z m 47.315524,0.45022 C 100.1535,103.86926 102.46652,98.349852 101.84655,93.956052 101.5,91.5 101.5,91.5 87.75,91.22178 74,90.943561 74,90.943561 74,95.749274 c 0,5.223396 1.901323,8.864606 5.356999,10.259146 3.577935,1.44387 14.481882,1.12626 17.654264,-0.51424 z M 9.5022293,72.438711 C 3.3442536,69.198861 0,64.198935 0,58.232119 0,53.517148 1.3878565,53 14.041309,53 c 11.641308,0 11.641308,0 14.346158,-16.245974 3.76615,-22.620393 5.974536,-25.122867 19.634654,-22.249373 9.088015,1.911723 22.867743,1.911723 31.955758,0 C 93.65985,11.626562 96.008116,14.293832 99.661075,36.861755 102.27329,53 102.27329,53 113.93665,53 126.61352,53 128,53.515826 128,58.232119 c 0,4.558389 -2.5087,9.291323 -6.56526,12.386059 C 117.65727,73.5 117.65727,73.5 65.078636,73.757953 18.800904,73.984993 12.140754,73.826898 9.5022293,72.438711 Z M 117.70533,63.75 C 120.45455,61 120.45455,61 64.052959,61 7.6513719,61 7.6513719,61 9.9499595,63.446734 13.176253,66.880966 11.353922,66.776914 65.728055,66.63158 114.95611,66.5 114.95611,66.5 117.70533,63.75 Z m -23.622625,-14 C 93.418009,46.5 93.418009,46.5 64,46.5 34.581991,46.5 34.581991,46.5 33.917295,49.75 33.252599,53 33.252599,53 64,53 94.747401,53 94.747401,53 94.082705,49.75 Z M 92,37.942629 c 0,-3.937505 -2.530352,-15.137893 -3.625172,-16.046512 -0.979075,-0.81256 -2.730157,-0.74758 -6.603606,0.245049 -6.895992,1.767202 -28.646452,1.767202 -35.542444,0 C 42.355329,21.148537 40.604247,21.083557 39.625172,21.896117 38.530352,22.804736 36,34.005124 36,37.942629 36,38.660615 44.987174,39 64,39 83.012826,39 92,38.660615 92,37.942629 Z"
       id="path13071"
       inkscape:connector-curvature="0" />
    <path
       style="fill:#a9a9a9"
       d="M 29.000513,112.87655 C 19.731591,109.18053 15.06578,92.843311 21.454545,86.454545 c 3.816303,-3.816302 33.274607,-3.816302 37.09091,0 1.35,1.35 2.454545,2.925 2.454545,3.5 C 61,90.529545 62.35,91 64,91 c 1.65,0 3,-0.470455 3,-1.045455 0,-0.575 1.104545,-2.15 2.454545,-3.5 3.89377,-3.893769 33.281065,-3.809842 37.197145,0.106231 5.34407,5.34407 2.5368,19.218614 -5.0335,24.877434 -4.483255,3.35124 -21.828327,3.58976 -26.594393,0.36571 C 70.786953,108.93786 67,103.53301 67,100.35212 67,98.40532 66.483035,98 64,98 c -2.483035,0 -3,0.40532 -3,2.35212 0,3.15622 -3.779201,8.58247 -7.92168,11.37408 -3.713395,2.50246 -18.870891,3.22663 -24.077807,1.15035 z m 22.07641,-8.79963 C 53.540016,101.61383 54,100.35493 54,96.076923 54,91 54,91 40,91 26,91 26,91 26,96.076923 26,104.33456 29.416274,107 40,107 c 7.678812,0 8.324141,-0.1703 11.076923,-2.92308 z m 48.058481,0.2325 c 1.560176,-1.56044 2.322816,-3.78978 2.651226,-7.749997 C 102.24766,91 102.24766,91 88.12383,91 74,91 74,91 74,96.411106 c 0,8.422564 3.480349,10.899234 14.662037,10.433734 6.913272,-0.28781 8.645394,-0.70713 10.473367,-2.53542 z M 8.9660061,71.75 C 3.9507028,69.218594 0.04321144,63.411643 0.01645042,58.45 -0.01027294,53.49534 1.2716213,53 14.120545,53 c 11.720544,0 11.720544,0 12.251638,-2.75 0.292101,-1.5125 1.52604,-8.968253 2.742085,-16.568341 C 32.48914,12.589262 32.529879,12.563102 56.75,15.935634 c 4.878945,0.679369 9.621055,0.679369 14.5,0 C 95.55469,12.551326 95.514983,12.526068 98.862363,33.5 c 1.228897,7.7 2.473357,15.2375 2.765457,16.75 0.53109,2.75 0.53109,2.75 12.25164,2.75 15.03085,0 17.42807,2.52872 11.84997,12.5 C 120.91251,74.110627 121.71591,74 64,74 13.538075,74 13.413706,73.994915 8.9660061,71.75 Z M 115.92848,65.536985 c 1.55604,-0.804658 3.09457,-2.154658 3.41895,-3 C 119.87367,61.165627 113.90938,61 64,61 14.198367,61 8.1271767,61.167842 8.6499585,62.53019 c 1.6269955,4.239882 3.4685485,4.387801 55.1497015,4.429772 41.36866,0.0336 49.7548,-0.195322 52.12882,-1.422977 z M 94.189793,49.5 C 93.781188,46 93.781188,46 64,46 34.218812,46 34.218812,46 33.810207,49.5 33.401601,53 33.401601,53 64,53 94.598399,53 94.598399,53 94.189793,49.5 Z M 91.953321,36.75 C 91.927648,35.5125 91.357369,31.575 90.686034,28 89.265422,20.434938 89.851551,20.602493 73.25,23.015612 c -7.746861,1.126045 -10.753139,1.126045 -18.5,0 C 38.148449,20.602493 38.734578,20.434938 37.313966,28 35.006779,40.286262 31.886303,39 64,39 c 28,0 28,0 27.953321,-2.25 z"
       id="path13069"
       inkscape:connector-curvature="0" />
    <path
       style="fill:#949494"
       d="m 29.000513,112.92219 c -9.314671,-3.88436 -13.932414,-20.081198 -7.545968,-26.467645 3.816303,-3.816302 33.274607,-3.816302 37.09091,0 1.35,1.35 2.454545,2.925 2.454545,3.5 C 61,90.529545 62.35,91 64,91 c 1.65,0 3,-0.470455 3,-1.045455 0,-0.575 1.104545,-2.15 2.454545,-3.5 3.493658,-3.493657 32.684965,-3.836508 36.344785,-0.426868 6.8059,6.340657 3.05683,21.965513 -6.340429,26.424803 -5.388314,2.55692 -21.165585,1.90141 -25.137967,-1.04443 C 70.54903,108.61088 67,103.25121 67,100.35212 67,98.40532 66.483035,98 64,98 c -2.483035,0 -3,0.40532 -3,2.35212 0,2.89878 -3.54876,8.25843 -7.32041,11.05593 -3.232081,2.39729 -20.082223,3.4311 -24.679077,1.51414 z m 22.07641,-8.84527 C 53.540016,101.61383 54,100.35493 54,96.076923 54,91 54,91 40,91 26,91 26,91 26,96.411106 26,104.55445 29.268846,107 40.153648,107 c 7.508991,0 8.179673,-0.17948 10.923275,-2.92308 z m 48,0 C 101.54002,101.61383 102,100.35493 102,96.076923 102,91 102,91 88,91 c -14,0 -14,0 -14,5.30887 0,8.54313 2.785565,10.61588 14.326923,10.66072 7.336454,0.0285 8.010096,-0.15276 10.75,-2.89267 z M 8.9600225,71.697261 C 1.7464946,67.882656 -2.7620656,56.54858 1.9342585,54.035184 2.9981007,53.465833 8.8123459,53 14.854803,53 25.841089,53 25.841089,53 26.402814,50.25 26.711762,48.7375 27.927469,41.65 29.104386,34.5 32.361811,14.710494 34.244239,12.681362 47.376547,14.803829 61.021148,17.009094 64.550009,17.176225 72.5,15.993707 95.428329,12.583241 95.30663,12.495938 98.994306,35 c 1.126584,6.875 2.299494,13.7375 2.606474,15.25 0.55813,2.75 0.55813,2.75 11.54442,2.75 6.04245,0 11.8567,0.465833 12.92054,1.035184 4.69633,2.513396 0.18777,13.847472 -7.02576,17.662077 -6.8494,3.622051 -103.230555,3.622051 -110.0799575,0 z M 116.04966,65.47432 C 117.67235,64.635196 119,63.772 119,63.556107 c 0,-0.215892 0.27314,-1.104336 0.60699,-1.97432 C 120.15604,60.150987 114.85838,60 64.106989,60 33.248145,60 8,60.363992 8,60.80887 c 0,1.261063 2.296277,3.831055 4.5,5.036398 3.46619,1.895858 99.83372,1.550639 103.54966,-0.370948 z M 94.606989,51.418213 C 94.273145,50.548229 94,48.973229 94,47.918213 94,46.069889 92.90696,46 64,46 c -28.90696,0 -30,0.06989 -30,1.918213 0,1.055016 -0.273145,2.630016 -0.606989,3.5 C 32.847506,52.839776 35.947778,53 64,53 92.052222,53 95.152494,52.839776 94.606989,51.418213 Z M 91.365257,31.25 C 89.283502,19.26617 91.745985,20.357071 72.66415,22.965241 c -6.808,0.93054 -10.709544,0.939587 -17,0.03942 C 36.36714,20.243252 38.724177,19.22196 36.634743,31.25 35.288462,39 35.288462,39 64,39 c 28.711538,0 28.711538,0 27.365257,-7.75 z"
       id="path13067"
       inkscape:connector-curvature="0" />
    <path
       style="fill:#727272"
       d="M 27.594017,111.73355 C 21.601249,108.30672 19.658432,104.99954 19.174631,97.401589 18.400071,85.237355 20.406047,84 40.90103,84 55.232188,84 55.792975,84.078794 58.353977,86.452251 59.80929,87.800989 61,89.375989 61,89.952251 61,90.528513 62.35,91 64,91 c 1.65,0 3,-0.471487 3,-1.047749 0,-0.576262 1.19071,-2.151262 2.646023,-3.5 4.448228,-4.122478 32.196207,-3.763869 36.430897,0.470826 5.96731,5.967302 2.78339,20.129463 -5.57692,24.806353 -4.779087,2.6735 -18.363038,3.19029 -23.82881,0.90654 -4.263063,-1.78122 -8.425534,-6.80959 -9.24269,-11.16541 -0.96546,-5.146341 -5.89154,-5.146341 -6.857,0 -0.817156,4.35582 -4.979627,9.38419 -9.24269,11.16541 -5.469297,2.28522 -19.064249,1.76833 -23.734793,-0.90242 z m 23.329258,-7.32244 C 53.660885,102.10756 54,101.2258 54,96.411106 54,91 54,91 40,91 26,91 26,91 26,96.411106 26,104.51622 29.283904,107 40,107 c 6.982544,0 8.185336,-0.28507 10.923275,-2.58889 z m 48.153648,-0.33419 C 101.54414,101.6097 102,100.35782 102,96.049466 c 0,-5.104379 0,-5.104379 -14.25,-4.826923 -16.113006,0.313731 -16.356545,0.471923 -13.810287,8.970577 1.561749,5.21265 4.761478,6.7176 14.38721,6.76684 7.342432,0.0376 8.007863,-0.1409 10.75,-2.88304 z M 11.368203,72.911849 C 7.20826,71.706059 1.2790235,65.004244 0.44662796,60.567195 -0.75608746,54.15617 -0.4489978,54 13.360207,54 25.416402,54 25.79915,53.93357 26.323945,51.75 26.621363,50.5125 27.87633,42.975 29.112759,35 31.245915,21.241092 31.530509,20.328749 34.681049,17.149357 38.374152,13.422434 37.6545,13.462535 55.25,16.003177 63.904063,17.25275 66.061487,17.126438 84.772439,14.274701 93.416443,12.957268 96.092667,16.956598 98.975736,35.5 c 1.197174,7.7 2.416164,15.0125 2.708874,16.25 0.5166,2.184029 0.89645,2.25 12.95518,2.25 13.80921,0 14.1163,0.15617 12.91358,6.567195 -0.88278,4.705632 -6.78088,11.123908 -11.40183,12.40741 -4.59243,1.27558 -100.363998,1.218222 -104.783337,-0.06276 z M 117.8957,64.595012 C 123.02776,59.94904 123.62548,60 64,60 5.1132565,60 4.9285455,60.01435 9.75,64.214525 c 3.020229,2.63105 3.648825,2.659081 55.395703,2.470269 C 113.40399,66.508711 115.8906,66.4102 117.8957,64.595012 Z M 95,53.125 C 95,45.738574 96.142017,46 63.875,46 47.44375,46 34,46.39375 34,46.875 c 0,0.48125 -0.28125,2.28125 -0.625,4 C 32.75,54 32.75,54 63.875,54 80.994048,54 95,53.606258 95,53.125 Z M 91.356753,30.828217 C 89.6763,20.267507 89.781459,20.347708 79.767054,21.989118 c -10.504149,1.721681 -21.029959,1.721681 -31.534108,0 C 38.218541,20.347708 38.3237,20.267507 36.643247,30.828217 35.342928,39 35.342928,39 64,39 c 28.657072,0 28.657072,0 27.356753,-8.171783 z"
       id="path13065"
       inkscape:connector-curvature="0" />
    <path
       style="fill:#515151"
       d="M 28.401069,112.09457 C 19.256198,107.94147 15.435706,93.410447 21.812152,87.034002 24.846154,84 24.846154,84 39.376024,84 54.906641,84 58.094482,84.717188 59.868289,88.610272 60.669068,90.367788 61.762127,91 64,91 66.237873,91 67.330932,90.367788 68.131711,88.610272 69.902563,84.723675 73.098409,84 88.491289,84 106.97446,84 108.50345,84.891712 108.49402,95.665683 108.48287,108.40156 102.20753,114.01932 88.03811,113.97804 76.151043,113.94341 68.943672,109.54713 67.414991,101.39855 66.871709,98.502611 66.366666,98 64,98 c -2.366666,0 -2.871709,0.502611 -3.414991,3.39855 -2.006588,10.69604 -19.432061,16.48722 -32.18394,10.69602 z m 17.459718,-4.71673 C 51.460535,106.25789 54,102.87886 54,96.547749 54,91 54,91 40.059017,91 c -15.565299,0 -15.584689,0.0089 -14.582435,6.692407 1.258136,8.389843 8.842889,11.993703 20.384205,9.685433 z M 94.6849,106.93339 C 100.13904,104.86687 102,102.16129 102,96.298229 102,90.945087 102,90.945087 87.75,91.222543 73.5,91.5 73.5,91.5 73.227595,95.5 72.573714,105.10161 83.771591,111.06833 94.6849,106.93339 Z M 11,72.405695 C 3.8787807,69.321148 -1.1987221,61.352199 0.51560462,55.950834 1.0858346,54.154198 2.1174779,54 13.567388,54 c 6.837936,0 12.453453,-0.1125 12.478924,-0.25 0.02547,-0.1375 1.330732,-7.884957 2.900578,-17.216571 3.886509,-23.102518 4.976484,-24.17426 21.391078,-21.033258 9.915908,1.897452 17.408156,1.897452 27.324064,0 16.414594,-3.141002 17.504569,-2.06926 21.391078,21.033258 1.56985,9.331614 2.87511,17.079071 2.90058,17.216571 0.0255,0.1375 5.64099,0.25 12.47892,0.25 14.08132,0 14.63083,0.336985 12.63512,7.748463 -1.21392,4.508172 -5.07123,8.520318 -10.28561,10.698489 C 111.28709,74.742357 16.309072,74.705314 11,72.405695 Z M 117.36514,64.92742 C 123.69775,59.946189 124.28054,60 64,60 3.7194594,60 4.3022494,59.946189 10.634859,64.92742 c 4.131276,3.249662 102.599001,3.249662 106.730281,0 z M 94.986345,52.25 C 94.934574,45.61489 96.843879,46 64,46 34.233263,46 34.233263,46 33.630286,48.25 31.98844,54.376528 29.999737,54 64,54 92.862345,54 94.999058,53.879326 94.986345,52.25 Z m -2.440696,-15.5 c -0.270851,-1.2375 -0.956294,-4.95 -1.523208,-8.25 -1.353723,-7.880009 -2.420284,-8.596042 -10.28925,-6.907663 -8.007796,1.718167 -25.458586,1.718167 -33.466382,0 C 39.397843,19.903958 38.331282,20.619991 36.977559,28.5 36.410645,31.8 35.725202,35.5125 35.454351,36.75 34.961896,39 34.961896,39 64,39 c 29.038104,0 29.038104,0 28.545649,-2.25 z"
       id="path13063"
       inkscape:connector-curvature="0" />
    <path
       style="fill:#2a2a2a"
       d="M 30.791359,113.01159 C 20.150306,109.80391 14.795345,94.050809 21.923077,86.923077 24.846154,84 24.846154,84 39.788218,84 c 16.014373,0 19.091496,0.89493 20.720061,6.026085 0.946821,2.983169 5.856123,2.664315 7.285669,-0.473195 2.328613,-5.110748 4.751094,-5.727458 21.117016,-5.375924 18.803316,0.403888 19.656156,0.919305 19.472346,11.768203 -0.20735,12.238861 -5.25914,17.088941 -18.604336,17.861481 -12.683777,0.73426 -19.203031,-2.81458 -21.937687,-11.94205 -1.507618,-5.03198 -6.271893,-5.733517 -7.295247,-1.07422 -2.337905,10.64441 -16.156698,16.32024 -29.754681,12.22121 z m 17.660268,-6.42693 c 5.051071,-2.11047 8.513229,-11.512227 5.55287,-15.079241 C 52.386869,89.556296 28.110369,89.289631 26.2,91.2 c -3.345077,3.345077 -0.10275,13.06711 5.114715,15.33634 4.161567,1.80999 12.86193,1.83452 17.136912,0.0483 z m 48,0 c 4.420283,-1.84691 5.717883,-4.48226 5.349593,-10.864625 C 101.5,90.5 101.5,90.5 89.5,90.210399 73.481361,89.823815 72.996288,89.972664 73.014742,95.269052 73.051629,105.85568 84.716826,111.48777 96.451627,106.58466 Z M 13.5,73.093232 C 6.755724,71.416301 2.7474831,67.489657 0.94429401,60.793124 -0.7213591,54.60736 0.23726373,54.105161 14.331306,53.779996 26.467511,53.5 26.467511,53.5 29.151118,36.652415 32.75247,14.04326 34.372332,12.343543 49.366344,15.440641 c 9.598923,1.982712 19.668389,1.982712 29.267312,0 14.99118,-3.096513 16.61835,-1.391148 20.245268,21.218182 C 101.58053,53.5 101.58053,53.5 113.69272,53.779996 c 14.06783,0.325204 15.02815,0.829195 13.36299,7.013128 -1.31167,4.871143 -4.24439,8.706268 -8.39401,10.976856 C 115.27382,73.623761 20.433219,74.817143 13.5,73.093232 Z M 117.92327,64.411106 C 119.61547,62.987215 121,61.412215 121,60.911106 121,60.373621 97.625799,60 64,60 30.374201,60 7,60.373621 7,60.911106 c 0,0.501109 1.3845264,2.076109 3.076725,3.5 4.848822,4.080015 102.997725,4.080015 107.846545,0 z M 95,51.581787 C 95,45.749663 96.390318,46 64,46 31.609682,46 33,45.749663 33,51.581787 33,54 33,54 64,54 95,54 95,54 95,51.581787 Z M 92.664319,36.75 C 92.360446,35.5125 91.800239,32.111499 91.419415,29.192219 90.299697,20.608791 88.956756,19.658798 80.5,21.467848 c -8.962191,1.917172 -24.037809,1.917172 -33,0 -8.456756,-1.80905 -9.799697,-0.859057 -10.919415,7.724371 C 36.199761,32.111499 35.639554,35.5125 35.335681,36.75 34.783184,39 34.783184,39 64,39 c 29.216816,0 29.216816,0 28.664319,-2.25 z"
       id="path13061"
       inkscape:connector-curvature="0" />
    <path
       style="fill:#000000"
       d="M 30.5,112.49785 C 22.284396,109.59289 17.667897,100.91426 19.407015,91.643962 20.61036,85.229582 22.436684,84.532945 38.851832,84.226886 54.91517,83.927387 57.542123,84.56083 59.804566,89.279265 60.779226,91.311965 61.840191,92 64,92 c 2.159809,0 3.220774,-0.688035 4.195434,-2.720735 2.141694,-4.466606 5.052945,-5.248394 19.604226,-5.264523 C 106.51058,83.994002 108,84.909697 108,96.433904 c 0,10.745346 -5.69197,16.370326 -17.526568,17.320296 -11.948941,0.95914 -20.219324,-3.38308 -22.487575,-11.80672 -1.574006,-5.845416 -6.397708,-5.845416 -7.971714,0 C 57.310407,111.98838 43.261821,117.01031 30.5,112.49785 Z m 19.274926,-6.50205 c 4.498561,-2.74277 6.59082,-9.273149 4.618085,-14.414013 -0.624987,-1.628689 -23.974463,-2.447101 -27.811224,-0.974798 -1.866059,0.716074 -2.209593,8.351427 -0.517965,11.512261 3.12784,5.84442 16.813648,8.08193 23.711104,3.87655 z m 47.353512,0.43778 C 102.01954,103.90429 104.95314,93.865854 101.61163,91.092642 100.67655,90.316597 95.860758,90.031749 86.861627,90.220197 73.5,90.5 73.5,90.5 73.204427,95.557204 c -0.320843,5.489556 1.986631,9.766926 6.18369,11.462726 3.626765,1.46538 14.465476,1.10714 17.740321,-0.58635 z M 9.01658,71.148556 C 4.6566896,68.810321 2.1088134,65.416334 0.99026099,60.456819 -0.3736908,54.409234 0.47911149,54 14.445629,54 26.64637,54 26.64637,54 28.945245,38.75 32.560816,14.765461 34.500666,12.36145 47.798241,15.385919 c 9.077064,2.064535 23.326454,2.064535 32.403518,0 C 93.499334,12.36145 95.439184,14.765461 99.054755,38.75 101.35363,54 101.35363,54 113.55437,54 c 13.96652,0 14.81932,0.409234 13.45537,6.456819 -1.11855,4.959515 -3.66643,8.353502 -8.02632,10.691737 -5.3259,2.856313 -104.640937,2.856313 -109.96684,0 z M 112.8608,67.377841 C 115.84883,66.780234 121,62.657499 121,60.863636 121,60.388636 95.35,60 64,60 32.65,60 7,60.388636 7,60.863636 c 0,1.532573 5.087149,6.004435 7.326888,6.440707 3.520829,0.68581 95.130682,0.754144 98.533912,0.0735 z M 95,51.081787 C 95,44.67002 96.681972,45 64,45 31.318028,45 33,44.67002 33,51.081787 33,54 33,54 64,54 95,54 95,54 95,51.081787 Z M 93,38.683659 C 93,37.361711 91.360078,27.396711 90.471079,23.31665 89.792447,20.202067 87.413487,19.806226 79.477142,21.487341 c -8.916111,1.888654 -22.038173,1.888654 -30.954284,0 C 40.586513,19.806226 38.207553,20.202067 37.528921,23.31665 36.639922,27.396711 35,37.361711 35,38.683659 35,39.741853 40.687183,40 64,40 87.312817,40 93,39.741853 93,38.683659 Z"
       id="path13059"
       inkscape:connector-curvature="0" />
  </g>
</svg>
